<?xml version="1.0" standalone="no"?>
<!DOCTYPE svg PUBLIC "-//W3C//DTD SVG 20010904//EN"
 "http://www.w3.org/TR/2001/REC-SVG-20010904/DTD/svg10.dtd">
<svg version="1.0" xmlns="http://www.w3.org/2000/svg"
 width="1024.000000pt" height="1024.000000pt" viewBox="0 0 1024.000000 1024.000000"
 preserveAspectRatio="xMidYMid meet">

<g transform="translate(0.000000,1024.000000) scale(0.100000,-0.100000)"
fill="#000000" stroke="none">
<path d="M5017 9212 c-26 -27 -44 -52 -40 -57 5 -4 3 -5 -4 -2 -12 8 -53 -40
-99 -118 -75 -125 -104 -223 -104 -351 l0 -80 -122 -18 c-68 -10 -132 -20
-143 -22 -11 -2 -59 -11 -106 -20 -76 -14 -88 -19 -98 -41 -11 -24 -11 -25 5
-12 16 13 16 12 5 -8 -9 -18 -9 -29 2 -50 22 -45 119 -327 208 -603 45 -140
96 -302 115 -359 18 -57 31 -108 27 -114 -9 -14 -14 -1 -119 270 -103 265
-209 575 -271 791 -36 127 -57 163 -59 107 -1 -30 -16 -48 -41 -51 -21 -3
-147 -36 -151 -40 -2 -1 15 -30 37 -63 47 -69 56 -94 11 -33 -17 23 -34 42
-39 42 -5 0 -11 9 -14 20 -3 11 -10 20 -17 20 -6 0 -8 -4 -5 -10 3 -5 1 -10
-4 -10 -6 0 -11 8 -11 18 0 14 -2 15 -10 2 -8 -12 -10 -10 -10 9 0 19 -3 21
-14 12 -11 -9 -15 -9 -19 1 -2 7 -7 10 -11 6 -4 -3 -3 -15 2 -25 13 -24 27
-120 16 -110 -5 5 -16 27 -25 50 -9 23 -22 43 -30 45 -12 3 -12 2 0 -6 10 -7
10 -11 1 -17 -7 -4 -15 -3 -19 2 -3 6 -14 10 -23 10 -14 0 -18 -9 -18 -39 0
-21 -9 -66 -20 -99 l-21 -60 41 -75 c47 -84 46 -97 -1 -26 -18 26 -45 62 -60
79 -26 30 -29 31 -45 16 -15 -15 -17 -15 -26 0 -5 9 -14 17 -21 17 -8 0 -6 -4
3 -11 27 -19 -61 0 -110 23 -46 22 -122 77 -151 110 -9 10 -19 18 -21 18 -9 0
-6 -50 3 -56 5 -3 7 -10 3 -15 -3 -5 -1 -16 5 -23 8 -9 8 -20 1 -37 -10 -24
-10 -23 -7 4 3 15 0 27 -4 27 -5 0 -9 9 -9 20 0 11 -3 20 -7 20 -5 0 -42 -18
-84 -38 l-76 -38 -29 23 c-16 13 -63 43 -104 67 -172 101 -387 176 -610 212
-19 3 -38 8 -41 10 -6 3 -314 26 -384 28 -20 1 -29 -3 -27 -12 1 -8 -2 -11 -8
-7 -6 3 -8 10 -5 15 3 5 -4 8 -16 7 -17 -1 4 -25 97 -111 294 -271 748 -744
738 -769 -3 -9 16 -34 47 -65 49 -46 52 -51 39 -68 -14 -17 -14 -18 2 -6 15
12 20 10 42 -15 13 -15 20 -30 15 -31 -5 -2 -6 -9 -2 -15 12 -20 -56 34 -72
56 -8 12 -120 128 -248 257 -237 240 -380 388 -521 540 -43 47 -82 84 -87 82
-5 -1 -8 2 -7 6 4 12 -99 132 -106 125 -3 -4 -6 -1 -6 5 0 7 -4 12 -8 12 -11
0 -39 -125 -52 -230 -29 -240 6 -523 88 -719 17 -39 27 -71 23 -71 -8 0 -115
-160 -109 -164 2 -1 50 -15 107 -31 151 -41 365 -156 473 -253 44 -39 43 -72
0 -44 -15 9 -30 21 -34 27 -5 6 -12 5 -19 -5 -8 -12 -9 -10 -4 9 6 20 4 23 -9
18 -10 -4 -29 1 -44 11 -33 21 -24 4 24 -48 27 -29 74 -96 118 -167 11 -19
-39 -16 -58 3 -9 8 -16 11 -16 5 0 -5 9 -16 20 -24 17 -12 18 -16 6 -26 -7 -6
-20 -9 -28 -6 -18 7 -31 -28 -16 -43 6 -6 6 -12 -1 -16 -6 -4 -11 -2 -11 3 0
6 -4 11 -10 11 -5 0 -10 -9 -10 -19 0 -11 -4 -22 -9 -25 -14 -9 3 -236 18
-236 18 0 166 -96 208 -134 25 -23 30 -46 10 -46 -15 0 -311 138 -422 197 -38
21 -92 49 -120 63 -27 14 -52 28 -55 31 -4 5 -48 30 -145 83 -11 6 -22 14 -25
17 -20 24 -90 32 -90 10 0 -4 -8 -7 -17 -8 -10 0 -49 -8 -88 -17 -130 -29
-271 -13 -385 44 -33 16 -69 30 -80 30 -12 0 -18 5 -15 10 3 6 2 10 -4 10 -5
0 -13 -5 -16 -10 -4 -6 -10 -8 -15 -5 -4 3 -6 -4 -3 -15 3 -11 9 -23 14 -26 5
-3 9 -11 9 -17 0 -7 -4 -6 -10 3 -8 12 -10 8 -11 -15 -1 -21 -3 -24 -6 -10 -3
11 -9 25 -14 31 -5 6 -7 18 -3 27 3 8 1 18 -5 21 -21 14 -20 -15 5 -70 74
-168 153 -300 262 -435 99 -123 259 -257 291 -243 71 29 196 66 273 80 120 22
333 22 420 -1 99 -25 202 -66 187 -75 -7 -5 -23 -4 -37 1 -13 5 -27 7 -32 4
-5 -3 -21 0 -36 5 -33 13 -96 -6 -72 -21 23 -15 -7 -10 -68 12 -32 11 -76 19
-96 17 -21 -2 -39 1 -41 6 -2 5 -14 5 -27 1 -24 -8 -23 -8 14 -21 91 -32 173
-101 214 -179 30 -59 45 -205 21 -205 -10 0 -10 -3 -2 -11 6 -6 9 -18 6 -25
-6 -17 -29 -18 -30 -1 -3 42 -26 124 -40 141 -67 81 -108 115 -130 110 -13 -4
-30 -1 -38 6 -12 10 -15 10 -15 0 0 -7 8 -19 17 -26 15 -11 16 -13 2 -14 -8 0
-20 5 -26 11 -7 7 -19 3 -39 -13 -31 -26 -41 -28 -64 -14 -8 5 15 -22 51 -60
36 -38 85 -90 109 -116 l43 -48 186 -2 c116 -2 186 -7 185 -13 -1 -13 -191
-34 -320 -34 -124 -1 -224 -11 -224 -22 0 -13 -86 -145 -108 -166 -10 -10 -28
-19 -40 -20 -20 -2 -19 0 9 27 17 16 36 31 42 33 7 2 9 7 5 11 -3 4 -26 -8
-51 -27 -25 -19 -44 -36 -42 -38 2 -2 -11 -4 -28 -5 -18 0 -45 -6 -62 -12 -90
-32 -140 -42 -232 -45 -56 -2 -105 -6 -108 -9 -7 -7 5 -38 15 -38 5 0 12 9 15
20 5 15 15 20 38 19 32 0 32 0 7 -10 l-25 -11 39 -34 c29 -25 53 -36 90 -41
47 -6 49 -8 21 -14 -16 -4 -43 -7 -60 -7 l-30 0 30 8 30 8 -35 -1 c-20 0 -42
3 -49 8 -9 5 -12 4 -8 -2 4 -5 -6 -10 -23 -10 -16 0 -27 4 -25 8 3 4 -4 5 -16
2 -19 -5 -18 -7 11 -19 22 -10 37 -11 50 -4 24 13 33 13 25 0 -3 -5 0 -10 7
-10 10 0 10 -2 -1 -9 -11 -7 -4 -12 26 -21 l40 -12 22 -117 c113 -591 356
-1116 719 -1555 85 -102 292 -317 335 -348 25 -18 30 -19 45 -5 35 32 166 86
235 98 42 7 111 9 166 6 82 -5 104 -10 170 -43 102 -50 193 -141 248 -249 63
-122 75 -172 78 -320 l3 -130 98 -50 97 -49 26 34 c133 176 350 339 551 413
155 58 160 40 13 -39 -60 -31 -126 -69 -148 -83 -241 -155 -453 -377 -550
-576 -64 -131 -79 -198 -79 -340 0 -103 4 -130 26 -196 94 -269 315 -431 588
-432 216 0 424 89 587 253 67 67 86 81 94 70 5 -8 32 -53 59 -100 58 -98 117
-180 128 -179 9 0 82 110 145 219 77 133 125 244 165 378 33 110 40 123 62
128 87 18 285 80 363 112 l93 39 53 -53 c62 -61 158 -115 251 -140 90 -24 241
-22 351 4 105 25 316 96 382 128 39 18 52 21 67 12 15 -10 32 -6 87 16 139 56
258 122 271 148 7 16 37 39 75 58 379 196 654 404 734 556 43 80 61 192 46
272 -7 33 -9 76 -4 103 19 116 -47 199 -159 199 -61 0 -96 -17 -139 -65 -71
-81 -17 -215 100 -249 l44 -13 3 -54 c4 -66 -16 -115 -76 -187 -80 -96 -319
-271 -542 -397 -47 -27 -100 -59 -117 -72 -18 -13 -33 -19 -33 -14 0 24 -61 8
-182 -49 -71 -33 -133 -60 -138 -60 -5 0 -22 -14 -39 -31 -54 -53 -304 -128
-511 -152 -53 -7 -166 10 -214 32 -84 37 -153 117 -171 198 -6 32 -5 33 24 33
l31 0 0 62 c0 74 25 133 77 179 40 35 193 113 202 103 3 -4 0 -9 -7 -11 -6 -3
-39 -25 -72 -49 -95 -70 -138 -142 -128 -217 l3 -26 100 33 c130 44 330 132
475 208 118 61 461 283 522 337 19 16 57 39 86 50 50 20 224 141 202 141 -39
0 -681 -180 -887 -249 -106 -35 -113 -37 -119 -19 -7 23 -7 23 -179 -49 -339
-143 -445 -232 -512 -428 l-13 -40 5 50 c14 129 124 275 262 348 135 70 397
178 420 172 12 -3 52 6 90 19 191 68 621 197 838 251 l150 38 100 103 100 103
33 -30 33 -30 40 36 c44 39 76 55 117 55 l27 1 -30 16 c-16 9 -46 28 -65 42
-19 14 -37 26 -39 28 -2 1 30 48 70 105 301 417 507 913 595 1427 3 14 7 34
10 45 4 10 0 22 -7 27 -10 6 -6 9 14 9 15 0 42 8 60 17 18 9 34 17 37 18 18 2
70 29 70 37 0 5 -6 6 -12 1 -7 -4 -20 -8 -28 -9 -44 -3 -50 -5 -47 -15 1 -6
-4 -14 -12 -17 -8 -3 -11 0 -7 7 9 14 0 14 -25 1 -30 -16 -22 -3 9 15 15 9 18
13 7 9 -72 -28 -220 31 -316 124 -60 59 -72 82 -43 82 11 0 14 -5 10 -16 -4
-12 -1 -14 14 -9 12 4 20 2 20 -5 0 -6 -4 -8 -10 -5 -5 3 -10 2 -10 -3 0 -15
45 -52 64 -52 13 0 16 -5 12 -16 -5 -13 -1 -15 16 -11 13 4 30 2 38 -4 11 -8
9 -9 -10 -4 -24 6 -24 5 -6 -9 11 -9 24 -16 29 -16 5 0 21 -9 36 -19 15 -11
43 -22 64 -26 41 -8 91 1 82 15 -3 5 16 15 42 23 l48 14 -39 16 c-21 9 -47 17
-57 17 -10 0 -20 4 -23 8 -3 5 -37 14 -77 22 -40 7 -93 23 -119 36 -27 13 -53
24 -59 24 -6 0 -11 5 -11 10 0 6 -5 10 -11 10 -7 0 -32 16 -56 36 -30 25 -47
33 -52 25 -4 -6 -14 4 -24 27 -35 75 -24 71 -243 82 -110 5 -212 10 -229 11
-25 0 -27 2 -10 9 19 7 18 8 -5 14 -14 3 -36 7 -50 9 -14 3 57 5 158 6 181 1
188 2 183 34 -1 5 3 6 8 3 5 -3 15 2 22 11 12 14 12 16 0 8 -10 -5 -12 -4 -7
3 4 7 14 12 21 12 14 0 37 32 41 58 1 8 6 17 10 20 4 4 4 -2 0 -13 -4 -11 25
11 63 50 39 38 71 73 71 77 0 4 -11 -4 -25 -18 -14 -14 -31 -23 -38 -21 -13 5
-13 7 -3 49 5 22 3 25 -14 21 -11 -3 -20 -1 -20 5 0 5 -19 10 -41 10 -63 1
-147 -68 -191 -158 -25 -51 -39 -64 -51 -47 -5 7 -6 -9 -3 -38 4 -37 3 -45 -5
-32 -6 9 -13 48 -16 86 -5 59 -2 76 20 124 42 92 114 152 245 203 21 8 18 10
-20 12 -53 3 -169 -18 -162 -30 3 -4 -2 -8 -11 -8 -9 0 -29 -8 -43 -18 -43
-30 -56 -36 -48 -24 3 5 3 12 -1 15 -5 2 -3 2 4 1 6 -2 17 4 23 12 9 10 9 14
1 14 -6 0 -11 -4 -11 -9 0 -6 -15 -5 -36 1 -20 5 -42 7 -49 4 -9 -3 -12 0 -9
9 5 11 -3 13 -38 9 -23 -2 -49 -7 -55 -9 -7 -2 -13 -2 -13 0 0 17 190 85 275
99 181 29 399 2 582 -71 l64 -26 52 36 c129 89 258 221 349 358 63 96 112 183
123 219 7 23 6 23 -23 -7 -16 -18 -36 -33 -44 -32 -10 0 -10 2 0 6 6 2 12 15
12 28 0 13 5 27 11 31 9 5 10 -1 5 -22 -6 -22 -5 -26 4 -17 8 7 9 23 5 43 -5
24 -10 29 -16 19 -6 -9 -9 -10 -9 -2 0 23 19 23 35 1 l17 -23 -7 24 c-5 16 -4
21 4 17 6 -4 11 -15 11 -24 1 -15 2 -15 15 2 8 11 15 25 14 30 0 6 -3 5 -6 -2
-10 -26 -29 7 -25 43 3 29 8 35 21 30 10 -4 7 2 -7 15 -13 12 -26 19 -30 15
-3 -3 -1 -9 5 -13 9 -5 6 -12 -8 -21 -12 -7 -18 -8 -14 -2 11 18 -12 12 -74
-19 -62 -32 -228 -70 -302 -70 -22 0 -76 9 -120 20 -44 12 -85 18 -91 14 -7
-4 -8 -3 -4 4 4 8 0 12 -10 12 -16 0 -16 1 2 16 24 20 -77 -36 -181 -99 -72
-44 -608 -313 -671 -337 -23 -9 -24 -8 -14 11 7 13 17 18 27 15 12 -5 13 -3 5
7 -12 14 27 44 176 138 l57 36 3 64 c2 35 7 88 12 118 13 69 12 81 0 81 -6 0
-8 -12 -5 -27 l5 -28 -11 25 c-6 14 -15 45 -19 70 l-9 45 3 -52 c2 -29 0 -53
-3 -53 -12 1 -44 30 -33 30 8 0 9 7 1 28 -6 15 -10 29 -9 32 1 3 -6 6 -15 8
-15 3 -46 -28 -72 -72 -19 -32 -15 -13 8 41 24 55 97 170 145 227 19 21 31 42
29 47 -3 4 1 10 7 12 8 3 9 6 2 6 -6 1 -28 -10 -48 -24 -20 -14 -41 -25 -47
-25 -6 0 -7 -4 -4 -10 3 -5 1 -10 -4 -10 -6 0 -42 -22 -81 -50 -38 -27 -70
-47 -70 -42 0 15 127 128 200 178 167 115 288 170 456 209 l72 17 -46 67 c-25
36 -54 76 -65 89 l-21 22 36 108 c42 125 54 180 68 321 13 131 13 234 0 341
-13 104 -42 240 -51 240 -4 0 -17 -12 -29 -27 -12 -16 -43 -50 -69 -78 -25
-27 -91 -99 -146 -160 -54 -60 -232 -246 -394 -413 -163 -166 -299 -308 -303
-316 -11 -19 -118 -109 -118 -99 0 5 36 47 80 93 49 50 79 89 75 97 -3 8 0 24
6 35 19 35 290 322 477 506 98 95 176 177 174 183 -1 6 2 8 6 5 12 -7 44 28
35 39 -5 4 -2 5 5 1 15 -9 124 92 115 107 -3 6 -1 7 5 3 6 -3 14 -1 18 5 4 8
-17 9 -77 5 -46 -3 -122 -8 -169 -11 -151 -9 -203 -16 -325 -42 -231 -49 -408
-118 -590 -232 l-90 -56 -67 35 c-37 20 -74 44 -81 54 -12 16 -13 14 -11 -20
2 -26 1 -34 -6 -24 -5 8 -6 18 -4 22 3 4 2 13 -1 18 -4 6 -22 -2 -44 -20 -52
-40 -184 -92 -250 -98 -51 -4 -54 -4 -48 17 9 34 -1 25 -47 -46 -86 -132 -116
-146 -49 -22 l36 68 -12 73 c-14 75 -43 152 -49 124 -2 -8 -9 -13 -17 -10 -7
3 -22 -5 -34 -17 -21 -23 -23 -21 -25 16 -1 14 -8 20 -22 19 -14 0 -20 4 -17
13 9 23 -5 14 -53 -32 -56 -55 -69 -52 -24 5 18 23 31 42 29 44 -5 4 -133 41
-172 50 -28 7 -28 6 -13 -21 112 -218 157 -423 155 -703 0 -85 -7 -191 -14
-235 -21 -124 -73 -261 -148 -385 -71 -119 -250 -325 -271 -313 -6 3 -8 3 -4
-2 9 -10 -32 -41 -47 -37 -5 2 -7 0 -3 -3 11 -11 -40 -48 -53 -39 -7 4 -9 3
-6 -3 8 -13 -34 -44 -128 -93 -96 -51 -112 -51 -55 0 25 21 51 37 58 35 7 -3
11 -1 8 4 -3 5 11 24 32 41 20 18 63 57 95 87 32 29 63 50 69 47 6 -4 8 -3 4
4 -3 6 22 44 57 84 141 162 259 375 322 578 27 89 41 163 26 140 -9 -13 -11
-13 -11 3 0 28 -13 20 -44 -28 -55 -89 -225 -230 -266 -223 -27 6 -24 47 7 74
15 13 31 24 36 24 12 0 127 115 141 141 7 13 20 36 30 52 16 23 16 26 3 21
-14 -5 -14 -2 -4 25 6 17 14 31 18 31 3 0 1 18 -5 41 -10 38 -12 40 -40 35
-16 -3 -34 -1 -41 4 -8 7 -21 7 -36 1 -13 -5 -20 -10 -15 -10 10 -1 -13 -31
-25 -31 -4 0 -6 9 -4 20 3 16 1 18 -13 11 -9 -4 -22 -6 -29 -4 -6 2 -14 -1
-18 -6 -3 -6 -1 -11 4 -11 6 0 11 -4 11 -10 0 -5 -6 -10 -14 -10 -8 0 -22 -10
-32 -22 l-16 -23 6 28 c5 19 3 26 -4 22 -5 -3 -10 -13 -10 -21 0 -9 -5 -12
-11 -8 -8 4 -8 1 -1 -12 7 -14 4 -30 -10 -59 -17 -36 -19 -33 -7 15 2 8 8 18
13 21 4 4 4 9 -1 12 -13 8 -68 -128 -58 -144 5 -7 4 -10 -3 -5 -6 4 -18 -15
-30 -46 -11 -29 -28 -68 -37 -86 -10 -19 -18 -44 -19 -57 0 -13 -4 -21 -7 -19
-7 4 -24 -45 -21 -58 1 -5 -2 -8 -8 -8 -5 0 -10 -6 -10 -13 0 -14 -31 -47 -43
-47 -4 0 -5 11 -1 24 6 25 -16 50 -24 27 -12 -35 -119 172 -153 294 -12 44
-30 92 -40 107 -11 14 -19 33 -19 42 0 9 -4 16 -10 16 -5 0 -10 -9 -10 -20 0
-29 -30 -38 -47 -14 -7 10 -11 25 -7 34 3 8 7 22 9 30 1 8 0 9 -2 3 -3 -7 -9
-13 -14 -13 -12 0 -11 4 3 35 9 19 14 22 21 13 6 -9 7 -8 3 5 -6 20 13 69 25
61 5 -3 6 1 3 9 -3 8 0 18 7 23 8 5 10 3 4 -6 -5 -8 -4 -11 3 -6 6 4 9 12 6
20 -6 15 58 103 139 195 98 109 236 210 421 307 l99 52 -49 10 c-42 9 -125 24
-200 37 -12 2 -65 9 -118 15 l-96 12 0 62 c0 83 -16 167 -47 246 -24 60 -77
154 -108 190 -45 52 -149 160 -155 160 -4 0 -11 -84 -16 -187 -9 -219 -21
-204 -23 30 0 86 -5 157 -9 157 -4 0 -29 -22 -55 -48z m-1566 -1017 c17 -19
34 -33 38 -31 4 3 7 -4 7 -15 0 -10 -2 -19 -4 -19 -7 0 -82 84 -82 92 0 15 10
8 41 -27z m-23 -67 c11 -32 19 -58 16 -58 -5 0 -33 68 -41 99 -10 43 4 20 25
-41z m3363 -1 c-10 -9 -11 -8 -5 6 3 10 9 15 12 12 3 -3 0 -11 -7 -18z m-3261
-422 c96 -6 256 -46 334 -83 34 -16 84 -47 111 -69 44 -34 53 -48 63 -92 9
-38 9 -57 1 -69 -9 -15 -10 -15 -5 1 3 11 2 15 -4 12 -6 -3 -10 -14 -10 -23 0
-14 -1 -14 -13 2 -12 16 -14 16 -52 -1 l-40 -18 -2 -63 c-2 -89 -8 -100 -35
-76 -12 11 13 -21 56 -70 71 -83 136 -169 136 -182 0 -9 -61 44 -157 138 -51
49 -93 94 -93 100 0 6 -7 8 -14 5 -10 -4 -13 -1 -10 7 3 7 -3 19 -12 27 -16
12 -17 12 -11 -3 6 -16 -1 -17 -78 -13 -136 8 -274 66 -320 135 l-16 25 6 -27
c3 -18 1 -28 -6 -28 -17 0 -6 218 15 307 l17 72 32 -4 c18 -2 66 -7 107 -10z
m3295 -57 c10 -40 20 -127 22 -193 5 -103 3 -122 -11 -134 -15 -13 -23 -2 -9
13 4 3 8 13 9 22 2 10 -13 4 -44 -19 -61 -43 -108 -64 -168 -77 -68 -14 -194
-20 -194 -9 0 5 -11 2 -25 -7 -14 -9 -22 -20 -19 -25 3 -5 1 -8 -4 -7 -8 3
-72 -58 -72 -68 0 -3 8 -1 18 4 9 5 42 10 72 11 49 2 195 21 288 37 17 4 32
10 32 14 0 4 14 13 30 20 34 14 36 18 14 34 -14 11 -14 13 2 27 16 12 17 12
12 -3 -10 -25 19 -31 35 -7 14 18 15 19 21 2 4 -9 4 -14 0 -11 -4 4 -15 -4
-26 -17 -10 -13 -42 -38 -72 -54 -46 -26 -67 -32 -157 -38 -96 -7 -100 -8 -49
-14 37 -3 13 -6 -75 -7 -71 -1 -138 -2 -147 -3 -9 0 -36 -21 -60 -47 -60 -64
-154 -142 -140 -116 6 11 18 26 26 34 9 7 16 17 16 22 0 5 11 21 25 36 14 15
23 33 20 39 -2 7 -1 12 3 10 15 -4 55 43 58 69 2 25 24 59 24 38 0 -5 -5 -15
-12 -22 -8 -8 -8 -12 -1 -12 12 0 43 43 43 60 0 5 -4 10 -10 10 -5 0 -7 -7 -4
-15 4 -8 1 -15 -6 -15 -8 0 -9 13 -4 45 7 47 5 49 -43 45 -22 -1 -44 26 -36
47 3 7 -3 10 -15 6 -11 -2 -23 0 -26 6 -4 6 0 11 10 11 16 0 16 1 -2 14 -16
13 -17 15 -3 21 9 3 16 12 16 20 0 18 -9 19 -27 3 -8 -7 -6 0 4 16 10 16 13
25 7 22 -25 -16 -9 12 27 46 98 94 286 162 492 178 52 4 100 8 107 9 6 0 19
-30 28 -71z m-3764 -245 c13 -16 12 -17 -3 -4 -17 13 -22 21 -14 21 2 0 10 -8
17 -17z m2679 2 c-7 -9 -15 -13 -19 -10 -3 3 1 10 9 15 21 14 24 12 10 -5z
m-2303 -164 c16 -11 34 -26 41 -32 7 -5 21 -11 32 -12 10 -1 16 -5 13 -11 -4
-5 1 -7 12 -2 15 5 16 4 5 -9 -8 -10 -16 -12 -19 -6 -4 6 -22 17 -41 25 -64
28 -130 102 -114 127 4 8 13 0 25 -24 10 -19 31 -45 46 -56z m3373 63 c0 -8
-4 -12 -10 -9 -5 3 -10 10 -10 16 0 5 5 9 10 9 6 0 10 -7 10 -16z m-540 -51
c0 -2 -6 -11 -14 -18 -12 -12 -14 -11 -12 9 0 14 6 22 14 19 6 -3 12 -7 12
-10z m-2616 -89 c25 -4 46 -11 46 -17 0 -5 -11 -6 -27 -2 -16 3 -43 8 -61 10
-18 2 -36 6 -39 9 -8 8 22 8 81 0z m206 -14 c0 -6 -23 -9 -52 -8 l-53 1 45 7
c25 4 48 8 53 8 4 1 7 -2 7 -8z m-1350 -120 c0 -5 -2 -10 -4 -10 -3 0 -8 5
-11 10 -3 6 -1 10 4 10 6 0 11 -4 11 -10z m981 -17 c13 -16 12 -17 -3 -4 -10
7 -18 15 -18 17 0 8 8 3 21 -13z m-2351 -246 c11 -5 9 -6 -4 -4 -11 1 -21 9
-23 17 -3 10 -2 11 4 4 4 -6 15 -14 23 -17z m3033 -49 c42 -5 77 -14 77 -17 0
-9 1 -9 -115 -20 -157 -16 -323 -64 -482 -139 -80 -37 -136 -77 -200 -141 -40
-41 -63 -48 -63 -19 0 20 -1 19 -18 -3 -27 -36 -62 -105 -62 -120 0 -11 3 -11
11 1 9 13 10 13 6 0 -2 -8 -10 -15 -17 -15 -19 0 -49 -119 -57 -222 -5 -65 -1
-101 17 -179 23 -101 76 -228 91 -218 4 2 12 -9 16 -26 5 -17 12 -31 17 -30 4
1 24 -29 42 -65 108 -211 300 -386 826 -750 39 -27 122 -87 182 -132 61 -45
140 -104 176 -130 136 -101 414 -358 404 -375 -3 -5 -1 -7 4 -6 5 2 24 -12 41
-30 l32 -32 115 104 c197 181 339 290 894 686 250 178 421 322 533 448 60 68
173 231 169 245 -1 4 3 6 9 5 19 -5 95 148 120 241 20 71 24 110 24 221 0 122
-3 143 -28 216 -38 110 -89 192 -172 276 -161 161 -329 230 -559 229 -60 -1
-107 1 -105 3 9 9 197 12 279 5 145 -12 325 -79 465 -173 112 -75 345 -321
357 -377 2 -8 8 -17 13 -21 6 -5 5 -8 -3 -8 -7 0 -17 10 -22 23 -21 53 -7 -3
25 -100 48 -143 65 -237 65 -364 0 -144 -42 -332 -96 -432 -8 -15 -12 -32 -8
-39 4 -7 3 -8 -4 -4 -8 4 -16 -4 -23 -21 -20 -55 -138 -226 -209 -303 -17 -19
-44 -48 -58 -64 -15 -17 -26 -34 -24 -39 1 -4 -2 -6 -7 -3 -5 3 -17 -6 -26
-21 -16 -24 -16 -26 -1 -20 11 4 15 3 11 -4 -4 -5 -15 -7 -24 -4 -11 3 -25 -3
-36 -15 -21 -23 -14 -27 8 -5 13 13 16 13 21 0 3 -8 2 -14 -2 -13 -4 1 -17 -1
-29 -6 -15 -5 -20 -13 -17 -24 5 -13 4 -14 -4 -3 -11 15 -39 4 -62 -24 -12
-14 -11 -18 1 -26 11 -8 9 -9 -6 -5 -13 4 -30 -3 -47 -17 -14 -12 -37 -31 -50
-42 -12 -11 -43 -35 -68 -54 -25 -19 -56 -44 -69 -57 -12 -13 -32 -26 -43 -30
-11 -3 -17 -12 -14 -19 3 -9 0 -12 -10 -8 -8 3 -25 -6 -39 -21 -14 -15 -25
-23 -25 -19 -1 4 -9 -2 -19 -14 -10 -12 -20 -20 -22 -18 -2 2 -30 -16 -61 -39
-32 -24 -54 -46 -50 -50 4 -4 2 -6 -3 -5 -12 4 -155 -92 -175 -117 -14 -18
-14 -18 3 -5 9 7 17 9 17 3 0 -10 -43 -42 -57 -42 -4 0 -1 5 7 10 8 5 10 10 3
10 -23 0 -135 -104 -125 -116 4 -4 1 -4 -5 0 -19 11 -38 -4 -22 -16 11 -7 10
-8 -4 -4 -11 4 -27 -2 -40 -16 -12 -11 -16 -17 -8 -13 10 5 12 4 7 -4 -4 -6
-11 -9 -16 -6 -10 6 -66 -44 -62 -56 1 -5 -1 -8 -5 -7 -13 4 -49 -25 -62 -50
-7 -12 -16 -20 -20 -18 -18 11 -187 -162 -406 -415 -101 -116 -276 -407 -327
-542 -63 -168 -118 -381 -118 -457 0 -17 -5 -30 -11 -30 -7 0 -9 -10 -5 -27 4
-19 4 -23 -3 -14 -6 9 -10 0 -12 -32 -2 -25 0 -43 5 -40 4 3 5 -5 1 -18 -5
-13 -8 -36 -7 -51 1 -23 -2 -26 -13 -15 -7 7 -15 22 -18 33 -4 16 -5 16 -6 -4
-1 -15 -5 -21 -13 -16 -7 4 -8 3 -4 -5 4 -6 11 -9 16 -6 5 3 11 1 15 -5 3 -5
0 -10 -7 -11 -7 0 -2 -5 12 -11 19 -9 21 -12 9 -15 -10 -2 -20 -14 -23 -26
l-7 -22 -10 24 c-5 14 -7 31 -4 39 3 8 1 20 -4 26 -40 48 -51 538 -17 736 1 8
9 56 16 105 7 50 20 99 29 110 15 19 15 19 -3 5 -18 -14 -18 -11 -12 75 12
163 38 274 93 397 24 55 24 57 6 78 -76 90 -310 311 -433 407 -8 6 -52 41 -97
76 -65 52 -334 248 -447 327 -11 8 -69 52 -129 98 -62 48 -112 80 -119 76 -6
-4 -8 -3 -5 3 9 14 -160 166 -174 157 -8 -4 -9 -3 -5 4 4 7 -19 38 -54 75 -33
35 -75 83 -92 108 -18 24 -35 46 -38 49 -12 11 -86 129 -116 185 -40 74 -86
196 -108 290 -21 92 -36 258 -23 267 6 3 8 33 4 75 -4 45 -3 63 3 53 8 -12 10
-9 10 13 0 15 -4 27 -9 27 -5 0 -12 12 -16 28 -7 26 -8 24 -21 -22 -7 -27 -17
-53 -23 -59 -12 -12 -15 -31 -3 -24 4 3 5 -18 3 -46 -3 -39 -6 -47 -12 -32 -5
14 -7 6 -6 -25 1 -31 -2 -44 -11 -43 -6 2 -12 -5 -12 -14 0 -9 -2 -14 -5 -11
-3 3 3 40 15 82 23 89 24 100 5 66 -21 -37 -18 -16 5 33 11 23 26 60 33 82 19
54 72 136 82 127 5 -4 5 -1 1 5 -4 8 18 48 55 100 64 92 98 130 111 125 5 -1
8 5 8 12 0 26 169 193 238 237 234 148 465 191 785 147z m-3057 -13 c-3 -9 2
-24 12 -35 33 -36 43 -50 35 -50 -13 1 -37 24 -50 47 -11 20 -9 53 4 53 3 0 3
-7 -1 -15z m7121 -89 c0 -8 -6 -12 -15 -9 -11 5 -11 7 0 14 7 5 13 9 14 9 0 0
1 -6 1 -14z m-6973 -42 c34 -15 65 -23 78 -20 l23 6 -22 -11 c-19 -10 -31 -8
-65 6 -43 19 -87 45 -76 45 3 0 31 -12 62 -26z m7726 13 c-14 -8 -27 -12 -30
-10 -7 6 23 23 40 23 8 0 4 -6 -10 -13z m-4681 -21 c9 -6 12 -5 8 1 -4 5 6 8
25 5 28 -4 29 -6 14 -17 -15 -11 -15 -13 -1 -19 9 -3 14 -2 11 3 -14 21 25 33
84 27 85 -10 167 -35 149 -47 -11 -7 -8 -9 11 -10 14 -1 31 -2 38 -2 7 1 11
-2 8 -5 -3 -3 0 -12 7 -20 10 -13 9 -14 -3 -7 -8 6 -17 10 -20 11 -3 1 -19 5
-37 9 -17 4 -34 13 -37 21 -3 8 -11 14 -18 14 -9 0 -8 -3 2 -10 12 -8 9 -10
-12 -10 -16 0 -28 -5 -28 -10 0 -6 11 -8 25 -4 20 5 24 3 19 -10 -3 -9 -24
-21 -45 -26 -25 -7 -39 -17 -40 -28 -1 -16 -2 -16 -6 1 -2 9 -9 17 -14 17 -17
0 -9 19 11 25 11 3 20 12 20 19 0 7 12 17 28 23 22 9 23 11 7 12 -11 1 -30 -5
-41 -13 -11 -8 -36 -16 -55 -19 -28 -3 -30 -5 -14 -11 18 -6 20 -15 18 -94 -4
-125 -5 -138 -10 -125 -3 7 -21 -6 -43 -33 -22 -24 -41 -44 -42 -44 -2 1 -16
-3 -31 -9 -161 -61 -317 37 -317 199 0 20 7 46 16 58 11 17 13 26 5 36 -8 9
-7 13 4 13 8 0 12 -5 9 -11 -3 -6 3 0 14 14 13 15 17 27 10 31 -5 3 0 9 11 12
12 3 19 1 16 -3 -3 -5 14 1 37 12 60 29 177 42 207 24z m1838 -20 c65 -17 205
-85 198 -96 -3 -4 3 -7 13 -6 9 0 16 -5 14 -12 -1 -8 2 -11 7 -8 13 8 73 -43
65 -56 -3 -5 2 -19 13 -30 10 -12 12 -18 6 -14 -7 4 -13 2 -13 -4 0 -6 -4 -9
-10 -5 -5 3 -2 -16 6 -42 41 -129 54 -188 54 -240 0 -32 -4 -53 -8 -46 -4 6
-7 -10 -7 -35 0 -26 -7 -61 -15 -79 -13 -28 -15 -30 -28 -15 -12 15 -13 11 -8
-25 4 -29 2 -43 -5 -43 -6 0 -9 -9 -6 -20 6 -25 -1 -25 -22 -2 -9 10 -31 24
-48 31 -27 11 -33 19 -33 44 0 29 0 30 -20 12 -15 -14 -20 -15 -20 -4 0 12 -2
11 -10 -1 -5 -8 -12 -11 -16 -7 -9 8 -34 -11 -34 -27 0 -6 5 -4 10 4 16 25 12
-10 -5 -40 -9 -18 -10 -29 -3 -37 8 -10 6 -13 -4 -13 -10 0 -19 -21 -27 -66
-8 -36 -24 -88 -37 -115 -14 -28 -21 -55 -18 -62 4 -7 4 -9 -1 -5 -11 10 -48
-61 -41 -79 3 -8 2 -12 -3 -8 -5 3 -24 -19 -42 -47 -88 -144 -276 -335 -539
-549 -30 -24 -61 -50 -68 -57 -8 -7 -30 -25 -50 -40 -21 -15 -42 -31 -48 -37
-7 -5 -54 -44 -105 -85 -51 -41 -134 -111 -184 -156 l-90 -81 -69 63 c-65 60
-69 65 -53 81 15 17 14 25 -18 108 -179 479 -62 1078 296 1521 163 201 394
367 599 431 69 21 88 23 225 18 83 -2 174 -11 202 -19z m2783 14 c-20 -13 -33
-13 -25 0 3 6 14 10 23 10 15 0 15 -2 2 -10z m-123 -16 c32 -9 18 -24 -20 -23
-28 2 -29 2 -7 7 23 4 24 5 5 13 -24 9 -9 11 22 3z m66 -1 c-7 -2 -19 -2 -25
0 -7 3 -2 5 12 5 14 0 19 -2 13 -5z m-7406 -29 c-3 -3 -12 -4 -19 -1 -8 3 -5
6 6 6 11 1 17 -2 13 -5z m7256 -11 c-7 -2 -19 -2 -25 0 -7 3 -2 5 12 5 14 0
19 -2 13 -5z m-4123 -23 c0 -5 -9 -10 -21 -10 -11 0 -17 5 -14 10 3 6 13 10
21 10 8 0 14 -4 14 -10z m-150 -61 c0 -6 -4 -7 -10 -4 -5 3 -10 11 -10 16 0 6
5 7 10 4 6 -3 10 -11 10 -16z m2042 -79 c22 -25 23 -31 12 -41 -12 -10 -13 -8
-8 6 6 14 4 16 -6 10 -8 -5 -11 -4 -6 3 3 6 -3 16 -14 22 -11 6 -20 15 -20 20
0 18 15 10 42 -20z m-3141 -31 c-12 -19 -21 -30 -21 -26 0 12 33 67 38 63 1
-2 -6 -19 -17 -37z m4164 -9 c-3 -5 -12 -10 -18 -10 -7 0 -6 4 3 10 19 12 23
12 15 0z m-999 -28 c0 -10 -6 -19 -13 -19 -8 0 -9 6 -2 19 5 10 11 18 12 18 2
0 3 -8 3 -18z m55 -29 c13 -16 12 -17 -3 -4 -10 7 -18 15 -18 17 0 8 8 3 21
-13z m-2161 3 c0 -3 -4 -8 -10 -11 -5 -3 -10 -1 -10 4 0 6 5 11 10 11 6 0 10
-2 10 -4z m-2017 -203 c-7 -2 -19 -2 -25 0 -7 3 -2 5 12 5 14 0 19 -2 13 -5z
m5397 -33 c0 -5 -4 -10 -10 -10 -5 0 -10 5 -10 10 0 6 5 10 10 10 6 0 10 -4
10 -10z m-5390 -25 c16 -19 1 -19 -24 0 -16 12 -17 15 -4 15 8 0 21 -7 28 -15z
m4933 -35 c3 -11 2 -18 -3 -15 -4 3 -10 14 -13 25 -3 11 -2 18 3 15 4 -3 10
-14 13 -25z m487 20 c0 -5 -2 -10 -4 -10 -2 0 -12 -3 -22 -7 -16 -6 -17 -5 -4
10 17 19 30 22 30 7z m-4893 -152 c-2 -13 -4 -5 -4 17 -1 22 1 32 4 23 2 -10
2 -28 0 -40z m-856 -6 c-11 -19 2 -44 44 -83 17 -16 27 -29 23 -29 -5 0 -36
27 -70 61 -35 33 -57 58 -50 54 6 -3 19 1 28 9 19 20 38 11 25 -12z m4316 -58
c-3 -3 -12 -4 -19 -1 -8 3 -5 6 6 6 11 1 17 -2 13 -5z m-6 -61 c-8 -15 -10
-15 -11 -2 0 17 10 32 18 25 2 -3 -1 -13 -7 -23z m-152 -68 c0 -5 -4 -3 -9 5
-5 8 -9 22 -9 30 0 16 17 -16 18 -35z m1484 -42 c-7 -2 -19 -2 -25 0 -7 3 -2
5 12 5 14 0 19 -2 13 -5z m577 -182 c-1 -13 -3 -13 -15 3 -19 26 -19 42 0 26
8 -7 15 -20 15 -29z m130 -58 c0 -2 -6 -10 -13 -17 -10 -11 -15 -11 -25 0 -18
19 -15 29 5 13 15 -12 16 -12 10 3 -4 12 -2 15 9 11 7 -3 14 -7 14 -10z
m-6605 -13 c3 -5 -3 -10 -15 -10 -12 0 -18 5 -15 10 3 6 10 10 15 10 5 0 12
-4 15 -10z m75 6 c0 -3 -4 -8 -10 -11 -5 -3 -10 -1 -10 4 0 6 5 11 10 11 6 0
10 -2 10 -4z m-53 -52 c-3 -3 -12 -4 -19 -1 -8 3 -5 6 6 6 11 1 17 -2 13 -5z
m6713 -44 c0 -5 -4 -10 -9 -10 -6 0 -13 5 -16 10 -3 6 1 10 9 10 9 0 16 -4 16
-10z m200 -64 c0 -2 -7 -7 -16 -10 -8 -3 -12 -2 -9 4 6 10 25 14 25 6z m-223
-82 c-3 -3 -12 -4 -19 -1 -8 3 -5 6 6 6 11 1 17 -2 13 -5z m-6749 -11 c-10 -2
-26 -2 -35 0 -10 3 -2 5 17 5 19 0 27 -2 18 -5z m6660 0 c-10 -2 -28 -2 -40 0
-13 2 -5 4 17 4 22 1 32 -1 23 -4z m-5294 -29 c3 -8 2 -12 -4 -9 -6 3 -10 10
-10 16 0 14 7 11 14 -7z m-846 -256 c-29 -36 -87 -121 -122 -176 -4 -8 14 3
42 22 27 20 55 36 61 36 7 0 24 6 39 14 15 7 41 16 57 20 28 7 28 6 11 -7 -10
-8 -16 -19 -12 -25 4 -7 1 -12 -9 -12 -9 0 -13 -4 -10 -10 3 -5 0 -10 -7 -10
-9 0 -9 -3 2 -10 13 -8 12 -10 -5 -11 -11 -1 -24 -1 -28 0 -5 1 -6 -3 -2 -9 3
-5 -1 -10 -9 -10 -19 0 -21 -16 -3 -23 6 -2 -5 -11 -25 -20 -21 -9 -38 -21
-38 -27 0 -6 -4 -9 -10 -5 -11 7 -78 -56 -106 -100 l-19 -30 35 26 c51 39 125
69 208 85 79 15 113 17 72 4 -24 -8 -24 -8 -2 -9 12 -1 22 -5 22 -11 0 -5 6
-10 14 -10 8 0 18 -4 21 -10 4 -6 -1 -7 -11 -3 -12 5 -15 3 -9 -6 6 -10 3 -11
-13 -2 -29 15 -40 14 -17 -3 18 -13 17 -15 -19 -50 -22 -20 -44 -36 -50 -36
-6 0 -3 -5 7 -11 26 -15 79 18 71 46 -6 17 -5 18 9 7 9 -8 18 -9 21 -3 3 5 0
12 -6 15 -7 2 -2 4 12 3 16 -1 24 3 22 11 -1 8 2 11 7 8 8 -6 38 10 145 75 31
19 52 27 58 21 12 -12 -97 -104 -237 -201 -55 -38 -99 -75 -97 -81 1 -6 -1 -9
-6 -6 -5 3 -33 -10 -63 -29 -30 -19 -48 -35 -41 -35 7 0 10 -5 6 -12 -5 -7 -3
-8 6 -3 10 6 12 4 7 -8 -4 -11 -2 -14 9 -10 13 5 13 8 -1 23 -8 9 -12 20 -8
23 9 10 25 9 19 -1 -3 -5 1 -9 9 -9 8 0 12 3 10 7 -2 4 2 15 9 25 13 18 14 18
20 -3 12 -37 -15 -102 -62 -148 -65 -65 -130 -77 -250 -49 -34 8 -66 14 -70
14 -20 -3 -21 4 -2 41 11 22 36 102 56 177 63 245 129 385 238 507 65 73 98
91 44 24z m5653 -13 c8 8 84 -105 126 -188 37 -73 78 -196 130 -392 9 -33 26
-81 38 -106 l23 -46 -87 -16 c-108 -21 -214 -31 -186 -18 18 9 17 10 -7 10
-16 1 -28 5 -28 9 0 5 -11 14 -24 20 -27 12 -89 96 -79 106 4 3 1 6 -5 6 -13
0 -36 76 -28 96 3 8 11 14 18 14 9 0 8 -3 -2 -10 -9 -6 -10 -10 -3 -10 35 0 8
27 -123 124 -80 60 -148 114 -151 122 -3 8 -9 12 -13 9 -5 -3 -12 -1 -15 5 -4
6 -3 10 2 9 4 -1 15 -1 23 0 13 1 13 2 0 11 -8 5 -11 10 -7 10 4 0 36 -19 70
-42 34 -24 67 -41 74 -40 6 1 15 -3 19 -9 5 -8 2 -10 -7 -5 -24 13 33 -33 94
-75 32 -23 60 -39 62 -37 2 2 -14 15 -36 28 -21 14 -42 33 -45 42 -5 16 -16
22 -36 19 -4 0 -5 6 -2 14 4 8 10 12 15 9 5 -3 12 2 15 11 4 9 16 21 28 25 21
9 21 9 -1 9 -13 1 -23 5 -23 10 0 5 -10 12 -22 14 -13 2 -2 5 23 6 81 2 233
-44 303 -92 28 -20 28 -20 18 0 -9 17 -72 76 -107 101 -26 19 -113 70 -135 80
-19 8 -21 11 -7 11 10 1 16 5 13 10 -4 5 0 12 6 15 7 4 3 4 -9 2 -13 -2 -23 0
-23 5 0 5 6 9 13 9 8 0 14 6 14 14 0 8 -6 12 -12 10 -7 -3 -18 2 -25 11 -10
12 -10 15 1 15 22 0 169 -67 191 -87 21 -18 21 -18 3 17 -10 19 -24 43 -33 53
-8 9 -13 17 -10 17 3 0 -10 17 -28 37 -19 20 -34 42 -34 47 0 6 7 3 14 -6 7
-10 15 -16 17 -13z m-1301 -196 c0 -5 -5 -7 -12 -3 -7 5 -9 2 -6 -7 4 -9 -2
-14 -19 -15 l-24 -2 22 19 c25 21 39 24 39 8z m-101 -72 c-2 -1 -13 -9 -24
-17 -19 -14 -19 -14 -6 3 7 9 18 17 24 17 6 0 8 -1 6 -3z m-4139 -127 c-33
-26 -49 -26 -19 0 13 10 29 19 34 19 6 1 -1 -8 -15 -19z m3640 -254 c0 -3 -4
-8 -10 -11 -5 -3 -10 -1 -10 4 0 6 5 11 10 11 6 0 10 -2 10 -4z m-3590 -86
c-35 -24 -54 -31 -30 -11 14 11 30 21 35 21 6 0 3 -5 -5 -10z m3450 -8 c0 -4
-10 -13 -22 -21 -23 -14 -23 -14 -4 8 20 22 26 25 26 13z m1873 -9 c-7 -2 -19
-2 -25 0 -7 3 -2 5 12 5 14 0 19 -2 13 -5z m137 -18 c0 -11 -10 -15 -32 -14
-31 2 -31 2 -5 6 15 2 27 9 27 14 0 5 2 9 5 9 3 0 5 -7 5 -15z m-5685 -5 c8
-13 -15 -13 -35 0 -12 8 -11 10 7 10 12 0 25 -4 28 -10z m62 -6 c-3 -3 -12 -4
-19 -1 -8 3 -5 6 6 6 11 1 17 -2 13 -5z m453 -239 c82 -79 52 -194 -58 -225
-28 -7 -44 -6 -78 9 -67 30 -94 87 -74 160 24 89 143 121 210 56z m4886 -1
c67 -32 61 -41 -30 -40 -95 1 -122 -11 -165 -78 -29 -43 -46 -30 -31 24 26 90
137 136 226 94z m-4315 -113 c38 -39 41 -93 4 -117 -13 -8 -29 -13 -35 -9 -5
3 -10 2 -10 -3 0 -5 -13 -12 -30 -14 -23 -3 -27 -2 -19 8 10 13 7 16 -25 28
-16 5 -17 4 -6 -9 7 -8 8 -15 3 -15 -11 0 -33 44 -33 66 0 27 30 75 53 84 40
16 68 10 98 -19z m3694 -1 c40 -42 39 -94 -4 -132 -75 -67 -182 4 -150 99 21
66 105 84 154 33z m-3106 -315 c42 -21 45 -41 7 -42 -29 -1 -29 -1 -6 7 28 9
19 13 -22 10 -14 -1 -29 4 -33 10 -6 9 2 10 26 5 19 -4 31 -4 27 0 -11 12 -79
15 -72 3 4 -6 0 -15 -7 -20 -10 -7 -9 -8 6 -4 11 3 27 1 35 -4 10 -6 0 -8 -30
-5 -24 2 -49 0 -55 -4 -5 -5 -18 -8 -27 -8 -44 1 50 67 95 67 15 0 41 -7 56
-15z m2535 -6 c62 -49 76 -143 29 -196 -37 -40 -90 -59 -129 -46 -16 6 -28 15
-27 21 2 6 -3 9 -10 6 -7 -2 -21 4 -31 15 -19 21 -39 91 -26 91 5 0 6 9 3 19
-6 25 22 73 56 94 37 24 102 22 135 -4z m-2624 -70 c0 -5 -9 -9 -20 -9 -19 0
-27 20 -13 33 7 8 33 -11 33 -24z m557 -1119 c62 -17 151 -39 199 -49 83 -17
87 -19 104 -54 10 -20 15 -37 12 -37 -4 0 -2 -4 4 -8 6 -4 14 -18 18 -32 6
-20 5 -22 -4 -10 -10 13 -11 12 -6 -3 3 -10 6 -23 6 -28 0 -6 3 -8 8 -6 4 3 8
-10 9 -27 1 -18 13 -68 28 -110 30 -88 33 -81 -55 -180 -87 -100 -169 -161
-270 -202 -190 -77 -399 -28 -510 120 -143 189 -131 425 36 692 l44 72 133
-53 c72 -29 182 -67 244 -85z m2930 113 c3 -7 -3 -9 -16 -6 -11 3 -34 -2 -52
-11 -45 -22 -49 -19 -14 10 31 25 75 29 82 7z m-1447 -31 c0 -14 -23 -29 -87
-57 -79 -34 -277 -105 -294 -105 -3 0 -4 10 -2 23 4 20 20 28 101 55 53 18
135 47 182 66 102 41 100 41 100 18z m-1138 -139 c5 -21 -11 -63 -24 -63 -12
0 -10 10 7 27 9 8 13 18 10 21 -3 4 -10 0 -14 -7 -6 -9 -11 -10 -15 -2 -4 6
-2 11 3 11 6 0 11 7 11 15 0 21 18 19 22 -2z m-696 -716 c39 -20 89 -41 110
-47 l39 -10 -45 6 c-101 11 -225 94 -293 194 -26 39 -20 34 44 -31 51 -51 96
-87 145 -112z"/>
<path d="M6770 6566 c0 -2 8 -10 18 -17 15 -13 16 -12 3 4 -13 16 -21 21 -21
13z"/>
<path d="M6840 6506 c0 -2 8 -10 18 -17 15 -13 16 -12 3 4 -13 16 -21 21 -21
13z"/>
<path d="M2996 6125 c-3 -8 -1 -15 3 -15 5 0 11 7 15 15 3 8 1 15 -3 15 -5 0
-11 -7 -15 -15z"/>
<path d="M2962 6040 c0 -14 2 -19 5 -12 2 6 2 18 0 25 -3 6 -5 1 -5 -13z"/>
<path d="M2940 6031 c0 -12 -4 -19 -10 -16 -5 3 -10 2 -10 -4 0 -5 4 -13 10
-16 11 -6 26 42 16 52 -3 4 -6 -4 -6 -16z"/>
<path d="M4820 4056 c0 -2 8 -10 18 -17 15 -13 16 -12 3 4 -13 16 -21 21 -21
13z"/>
<path d="M4924 3991 c-3 -3 -10 -6 -15 -6 -11 0 -10 -4 6 -33 l12 -22 19 22
c14 17 15 20 2 9 -18 -13 -42 -6 -32 10 3 5 9 7 14 4 4 -3 13 1 19 8 8 10 7
14 -4 14 -8 0 -18 -3 -21 -6z"/>
<path d="M4975 3928 c-13 -20 -17 -21 -25 -8 -5 8 -10 10 -10 4 0 -6 6 -16 13
-22 10 -9 17 -4 31 18 20 35 14 40 -9 8z"/>
<path d="M4830 3936 c0 -2 8 -10 18 -17 15 -13 16 -12 3 4 -13 16 -21 21 -21
13z"/>
<path d="M4875 3799 c-4 -6 -5 -12 -2 -15 2 -3 7 2 10 11 7 17 1 20 -8 4z"/>
<path d="M4851 3764 c0 -11 3 -14 6 -6 3 7 2 16 -1 19 -3 4 -6 -2 -5 -13z"/>
<path d="M4730 3730 c0 -5 5 -10 10 -10 6 0 10 5 10 10 0 6 -4 10 -10 10 -5 0
-10 -4 -10 -10z"/>
<path d="M4826 3725 c-9 -26 -7 -32 5 -12 6 10 9 21 6 23 -2 3 -7 -2 -11 -11z"/>
<path d="M5626 6392 c-3 -5 37 -26 89 -47 52 -21 93 -40 92 -42 -7 -6 -233 18
-255 27 -19 8 -33 4 -75 -23 -29 -19 -59 -42 -67 -53 -13 -17 -13 -18 0 -7 10
7 21 8 30 3 7 -5 24 -4 38 1 15 6 28 6 31 1 3 -5 15 -6 26 -3 11 3 116 6 233
5 139 -1 212 3 212 9 0 6 -9 29 -20 52 l-20 41 -93 17 c-118 22 -214 30 -221
19z"/>
<path d="M6416 6361 c-3 -5 2 -15 12 -22 15 -12 16 -12 5 2 -7 9 -10 19 -6 22
3 4 4 7 0 7 -3 0 -8 -4 -11 -9z"/>
<path d="M5368 6213 c7 -3 16 -2 19 1 4 3 -2 6 -13 5 -11 0 -14 -3 -6 -6z"/>
<path d="M5413 6203 c9 -2 25 -2 35 0 9 3 1 5 -18 5 -19 0 -27 -2 -17 -5z"/>
<path d="M5593 6193 c9 -2 23 -2 30 0 6 3 -1 5 -18 5 -16 0 -22 -2 -12 -5z"/>
<path d="M5600 6176 c0 -2 7 -6 15 -10 8 -3 15 -1 15 4 0 6 -7 10 -15 10 -8 0
-15 -2 -15 -4z"/>
<path d="M5675 6169 c-10 -14 -5 -18 46 -28 112 -25 112 -25 88 -39 -12 -8
-18 -9 -15 -3 5 7 -9 9 -41 5 -101 -11 -213 -15 -213 -7 0 9 -13 10 -130 13
-33 1 -49 4 -41 9 7 5 -10 7 -41 6 -52 -3 -54 -4 -105 -66 -29 -35 -53 -65
-53 -68 0 -3 62 -6 137 -6 76 0 270 -2 431 -4 161 -1 294 -1 296 1 1 1 0 26
-2 54 l-4 51 -108 26 c-60 15 -117 24 -126 20 -12 -4 -15 -3 -10 5 4 7 4 12
-1 13 -58 3 -96 9 -101 15 -4 4 8 4 26 1 21 -4 31 -3 27 3 -8 13 -52 13 -60
-1z"/>
<path d="M5086 5863 c-6 -14 -5 -15 5 -6 7 7 10 15 7 18 -3 3 -9 -2 -12 -12z"/>
<path d="M5403 5850 c-11 -11 -275 -48 -319 -45 -35 2 -36 1 -70 -74 -41 -90
-47 -117 -21 -113 9 2 17 -2 17 -8 0 -5 -6 -9 -12 -8 -7 2 -12 -5 -10 -14 2
-10 -2 -18 -8 -18 -31 0 -51 -43 -81 -168 -23 -101 -23 -109 -1 -115 13 -4 12
-5 -5 -6 -22 -1 -22 -1 -38 -123 l-6 -48 333 -1 c183 -1 336 -1 341 0 4 0 7
-3 7 -8 0 -20 48 5 100 52 30 27 56 53 58 57 1 4 -26 10 -60 13 -35 3 -121 12
-193 21 -71 8 -175 17 -230 20 -229 14 -254 17 -248 32 3 8 0 14 -6 14 -6 0
-11 8 -10 18 0 9 3 12 5 6 3 -7 22 -5 59 8 49 16 95 18 436 20 l382 2 44 60
c62 84 127 225 148 319 9 43 14 81 10 85 -5 6 -100 11 -492 25 -66 3 -125 1
-130 -3z m-39 -235 c-10 -8 -25 -15 -32 -15 -7 0 -10 -4 -7 -10 4 -6 -5 -10
-19 -10 -14 0 -26 -4 -26 -8 0 -5 15 -7 33 -6 17 2 23 1 13 -2 -15 -5 -16 -8
-5 -15 29 -18 -141 -9 -224 12 -45 12 -83 22 -85 24 -1 1 0 10 4 19 5 14 24
16 148 13 77 -2 155 0 171 4 47 11 50 10 29 -6z m-281 -62 c-7 -2 -21 -2 -30
0 -10 3 -4 5 12 5 17 0 24 -2 18 -5z m304 1 c-3 -3 -12 -4 -19 -1 -8 3 -5 6 6
6 11 1 17 -2 13 -5z"/>
<path d="M5263 5602 c-13 -2 -23 -8 -23 -13 0 -11 27 -11 54 0 24 9 2 19 -31
13z"/>
<path d="M6402 5840 c0 -14 2 -19 5 -12 2 6 2 18 0 25 -3 6 -5 1 -5 -13z"/>
<path d="M5517 5064 c-3 -3 -90 -8 -194 -11 -103 -3 -204 -5 -223 -6 -19 0
-84 2 -143 5 l-109 6 4 -84 c2 -56 7 -87 16 -93 7 -4 77 -11 155 -15 78 -4
164 -11 190 -15 47 -8 51 -6 105 34 76 56 226 185 214 185 -5 0 -11 -3 -15 -6z"/>
<path d="M4870 4786 c0 -10 29 -127 46 -183 7 -24 28 -31 39 -13 3 5 44 42 91
81 47 39 83 73 80 76 -12 12 -256 49 -256 39z"/>
<path d="M2050 5815 c-7 -9 -8 -15 -2 -15 5 0 12 7 16 15 3 8 4 15 2 15 -2 0
-9 -7 -16 -15z"/>
<path d="M2340 4340 c-9 -6 -10 -10 -3 -10 6 0 15 5 18 10 8 12 4 12 -15 0z"/>
<path d="M2259 4283 c-13 -17 -13 -17 6 -3 11 8 22 16 24 17 2 2 0 3 -6 3 -6
0 -17 -8 -24 -17z"/>
<path d="M7898 4623 c7 -3 16 -2 19 1 4 3 -2 6 -13 5 -11 0 -14 -3 -6 -6z"/>
<path d="M7903 4345 c0 -8 4 -12 9 -9 5 3 6 10 3 15 -9 13 -12 11 -12 -6z"/>
<path d="M7865 4260 c-3 -6 -1 -9 6 -8 7 2 13 -3 14 -11 0 -16 25 -29 25 -13
0 17 -37 44 -45 32z"/>
<path d="M7850 4216 c0 -8 5 -18 10 -21 6 -3 10 1 10 9 0 8 -4 18 -10 21 -5 3
-10 -1 -10 -9z"/>
<path d="M7930 4211 c0 -6 -7 -11 -15 -11 -8 0 -15 -4 -15 -9 0 -5 -7 -17 -16
-25 -8 -9 -11 -16 -5 -16 6 0 15 9 21 20 6 11 15 20 21 20 6 0 7 -5 4 -11 -4
-6 2 -5 14 3 12 7 20 17 18 22 -5 14 -27 20 -27 7z"/>
<path d="M7970 4186 c0 -2 7 -7 16 -10 8 -3 12 -2 9 4 -6 10 -25 14 -25 6z"/>
<path d="M6821 8444 c0 -11 3 -14 6 -6 3 7 2 16 -1 19 -3 4 -6 -2 -5 -13z"/>
<path d="M6606 8333 c-6 -14 -5 -15 5 -6 7 7 10 15 7 18 -3 3 -9 -2 -12 -12z"/>
<path d="M6529 8301 c-9 -9 -24 -28 -34 -43 -15 -24 -15 -28 -2 -28 8 0 14 7
13 16 0 9 5 19 13 22 9 3 12 0 9 -10 -4 -9 1 -14 15 -16 16 -1 18 1 8 7 -7 5
-10 14 -7 20 4 6 4 11 -1 10 -22 -4 -25 2 -7 15 10 8 17 16 14 19 -3 2 -12 -3
-21 -12z"/>
<path d="M3690 8280 c6 -11 13 -20 16 -20 2 0 0 9 -6 20 -6 11 -13 20 -16 20
-2 0 0 -9 6 -20z"/>
<path d="M3745 8290 c-3 -5 -2 -18 4 -27 7 -14 9 -12 8 10 -2 30 -3 31 -12 17z"/>
<path d="M6446 8271 c-23 -43 -20 -52 5 -12 11 18 18 35 15 38 -2 3 -12 -9
-20 -26z"/>
<path d="M6545 8221 c19 -8 18 -9 -5 -13 -24 -5 -24 -5 3 -7 32 -1 33 22 1 26
-18 3 -18 2 1 -6z"/>
<path d="M5461 7904 c0 -11 3 -14 6 -6 3 7 2 16 -1 19 -3 4 -6 -2 -5 -13z"/>
<path d="M5470 7851 c0 -7 -6 -11 -15 -7 -9 3 -19 -3 -26 -16 -11 -21 -12 -21
-25 -3 -8 10 -16 16 -19 13 -13 -13 -12 -169 2 -210 35 -104 92 -220 105 -216
16 6 70 139 63 156 -2 7 -1 11 4 8 12 -8 32 51 24 71 -4 11 -3 14 5 9 8 -5 10
-2 6 8 -7 19 -24 11 -25 -12 0 -14 -2 -14 -6 -2 -3 8 -11 18 -17 22 -8 5 -7 8
2 8 21 0 13 48 -13 72 -16 15 -26 36 -27 60 -2 20 -7 34 -12 31 -4 -3 -12 1
-17 8 -7 12 -9 12 -9 0z"/>
<path d="M6010 7770 c0 -5 5 -10 10 -10 6 0 10 5 10 10 0 6 -4 10 -10 10 -5 0
-10 -4 -10 -10z"/>
<path d="M6101 7704 c0 -11 3 -14 6 -6 3 7 2 16 -1 19 -3 4 -6 -2 -5 -13z"/>
<path d="M5773 7444 c0 -16 23 -19 31 -5 3 5 -2 11 -12 13 -11 3 -19 0 -19 -8z"/>
<path d="M5430 7378 c0 -9 5 -20 10 -23 13 -8 13 5 0 25 -8 13 -10 13 -10 -2z"/>
<path d="M2290 7129 c0 -5 5 -7 10 -4 6 3 10 8 10 11 0 2 -4 4 -10 4 -5 0 -10
-5 -10 -11z"/>
<path d="M2179 6885 c-14 -27 -34 -50 -51 -57 -15 -7 -28 -17 -28 -23 -1 -5
-7 2 -15 17 -15 26 -15 26 -47 11 -18 -9 -34 -17 -36 -18 -1 -1 3 -15 9 -31
11 -29 11 -29 22 -6 11 24 31 29 43 10 4 -7 3 -8 -4 -4 -14 8 -36 -30 -28 -50
3 -8 1 -14 -4 -14 -5 0 -10 6 -13 13 -2 8 -4 7 -3 -2 1 -16 176 -115 176 -100
0 6 5 7 10 4 6 -4 8 -10 5 -15 -6 -10 104 -75 112 -66 4 3 1 6 -6 6 -7 0 -9 5
-5 12 5 7 3 8 -7 3 -12 -7 -12 -6 -1 7 8 11 10 30 6 59 -7 48 -32 145 -44 169
-5 8 -16 34 -26 58 -14 34 -19 40 -26 28 -5 -9 -13 -16 -18 -16 -11 0 0 32 14
42 8 5 7 8 -1 8 -6 0 -22 -20 -34 -45z m-104 -147 c-1 -13 3 -29 9 -37 9 -12
8 -13 -8 -4 -21 11 -29 63 -11 63 7 0 11 -10 10 -22z m45 -28 c13 -8 13 -10
-2 -10 -9 0 -20 5 -23 10 -8 13 5 13 25 0z m31 -43 c-10 -9 -11 -8 -5 6 3 10
9 15 12 12 3 -3 0 -11 -7 -18z m159 -41 c0 -2 -7 -7 -16 -10 -8 -3 -12 -2 -9
4 6 10 25 14 25 6z"/>
<path d="M7785 6910 c-3 -5 1 -10 9 -10 9 0 16 5 16 10 0 6 -4 10 -9 10 -6 0
-13 -4 -16 -10z"/>
<path d="M1020 6900 c0 -6 5 -10 11 -10 7 0 9 -9 5 -24 -3 -13 -2 -34 2 -46 6
-16 8 -9 9 28 0 35 -4 52 -13 56 -8 3 -14 1 -14 -4z"/>
<path d="M7948 6818 c-41 -112 -71 -258 -53 -258 20 0 85 43 79 52 -4 6 -1 9
7 6 8 -3 32 7 54 22 22 15 43 28 48 28 4 1 20 9 36 18 l29 17 -19 32 c-11 18
-17 39 -14 47 7 19 -9 31 -64 48 -35 11 -45 12 -49 2 -3 -10 -7 -10 -17 -2
-10 8 -11 18 -5 36 5 13 6 24 2 24 -4 0 -19 -33 -34 -72z m14 -10 c-8 -8 -9
-4 -5 13 4 13 8 18 11 10 2 -7 -1 -18 -6 -23z m25 -30 c-3 -7 -5 -2 -5 12 0
14 2 19 5 13 2 -7 2 -19 0 -25z m93 12 c0 -5 -2 -10 -4 -10 -3 0 -8 5 -11 10
-3 6 -1 10 4 10 6 0 11 -4 11 -10z m-123 -32 c-3 -7 -5 -2 -5 12 0 14 2 19 5
13 2 -7 2 -19 0 -25z m63 -48 c-8 -5 -11 -12 -7 -16 3 -4 13 -1 22 6 9 7 18
10 21 7 3 -3 -4 -11 -16 -17 -15 -8 -25 -9 -32 -2 -12 12 -2 32 15 32 7 0 6
-4 -3 -10z m97 2 c9 -6 7 -11 -6 -19 -12 -8 -22 -8 -32 -1 -11 8 -11 9 3 4 10
-3 20 -1 23 4 3 5 -3 11 -12 13 -13 3 -14 5 -3 6 8 0 20 -3 27 -7z m-91 -67
c-11 -8 -24 -15 -30 -15 -5 0 -1 7 10 15 10 8 24 14 29 14 6 0 1 -6 -9 -14z
m-71 -45 c-3 -5 -12 -10 -18 -10 -7 0 -6 4 3 10 19 12 23 12 15 0z"/>
<path d="M7872 6855 c0 -16 2 -22 5 -12 2 9 2 23 0 30 -3 6 -5 -1 -5 -18z"/>
<path d="M1060 6850 c0 -5 5 -10 11 -10 5 0 7 5 4 10 -3 6 -8 10 -11 10 -2 0
-4 -4 -4 -10z"/>
<path d="M7891 6834 c0 -11 3 -14 6 -6 3 7 2 16 -1 19 -3 4 -6 -2 -5 -13z"/>
<path d="M9137 6823 c4 -11 8 -12 13 -3 6 9 9 9 13 1 4 -8 5 -8 3 0 -1 7 -9
13 -18 15 -11 1 -15 -3 -11 -13z"/>
<path d="M1090 6820 c0 -5 5 -10 11 -10 5 0 7 5 4 10 -3 6 -8 10 -11 10 -2 0
-4 -4 -4 -10z"/>
<path d="M8166 6799 c-3 -18 -4 -34 -2 -36 2 -3 7 10 11 27 4 17 5 34 2 36 -2
3 -7 -10 -11 -27z"/>
<path d="M8201 6804 c0 -11 3 -14 6 -6 3 7 2 16 -1 19 -3 4 -6 -2 -5 -13z"/>
<path d="M9145 6781 c-3 -12 -11 -19 -16 -16 -5 4 -9 2 -9 -4 0 -5 4 -12 9
-15 8 -6 35 43 27 51 -2 2 -7 -5 -11 -16z"/>
<path d="M8177 6743 c-4 -3 -7 -11 -7 -17 0 -6 5 -5 12 2 6 6 9 14 7 17 -3 3
-9 2 -12 -2z"/>
<path d="M2547 6359 c7 -7 15 -10 18 -7 3 3 -2 9 -12 12 -14 6 -15 5 -6 -5z"/>
<path d="M7868 6063 c7 -3 16 -2 19 1 4 3 -2 6 -13 5 -11 0 -14 -3 -6 -6z"/>
<path d="M7938 6063 c6 -2 18 -2 25 0 6 3 1 5 -13 5 -14 0 -19 -2 -12 -5z"/>
<path d="M7775 6050 c3 -5 10 -10 16 -10 5 0 9 5 9 10 0 6 -7 10 -16 10 -8 0
-12 -4 -9 -10z"/>
<path d="M2005 5961 c6 -5 26 -14 45 -19 19 -5 34 -14 33 -20 -2 -6 3 -9 11
-6 7 3 19 -2 26 -11 7 -8 19 -15 26 -15 28 0 13 17 -33 37 -66 28 -120 46
-108 34z"/>
<path d="M1997 5939 c7 -7 15 -10 18 -7 3 3 -2 9 -12 12 -14 6 -15 5 -6 -5z"/>
<path d="M8157 5939 c7 -7 15 -10 18 -7 3 3 -2 9 -12 12 -14 6 -15 5 -6 -5z"/>
<path d="M2038 5923 c7 -3 16 -2 19 1 4 3 -2 6 -13 5 -11 0 -14 -3 -6 -6z"/>
<path d="M8256 5902 c-2 -4 4 -8 14 -8 10 0 16 4 14 8 -3 4 -9 8 -14 8 -5 0
-11 -4 -14 -8z"/>
<path d="M7891 5744 c0 -11 3 -14 6 -6 3 7 2 16 -1 19 -3 4 -6 -2 -5 -13z"/>
<path d="M2341 5694 c0 -11 3 -14 6 -6 3 7 2 16 -1 19 -3 4 -6 -2 -5 -13z"/>
<path d="M8088 5613 c12 -2 30 -2 40 0 9 3 -1 5 -23 4 -22 0 -30 -2 -17 -4z"/>
<path d="M1080 5416 c0 -2 8 -10 18 -17 15 -13 16 -12 3 4 -13 16 -21 21 -21
13z"/>
<path d="M1149 5356 c13 -16 51 -41 51 -33 0 2 -15 14 -32 27 -21 15 -28 17
-19 6z"/>
<path d="M9033 5349 c-5 -5 -23 -11 -39 -13 -18 -2 -29 -9 -29 -19 0 -17 -65
-71 -74 -61 -3 3 1 9 9 14 8 6 11 10 5 10 -5 -1 -18 -7 -28 -14 -17 -13 -16
-14 2 -19 20 -5 116 55 105 66 -4 3 5 9 19 12 15 4 31 13 38 21 13 16 8 19 -8
3z"/>
<path d="M8858 5293 c7 -3 16 -2 19 1 4 3 -2 6 -13 5 -11 0 -14 -3 -6 -6z"/>
<path d="M1283 5258 c10 -9 25 -14 34 -11 11 4 14 2 9 -5 -3 -6 2 -16 13 -21
15 -8 19 -8 17 4 -3 21 -12 27 -41 31 -14 1 -32 6 -38 11 -7 4 -5 0 6 -9z"/>
<path d="M8804 5264 c3 -22 22 -38 30 -25 4 6 -1 11 -11 12 -16 0 -16 1 1 8
19 7 19 8 -1 13 -14 4 -20 1 -19 -8z"/>
<path d="M1415 5220 c-3 -5 1 -10 10 -10 9 0 13 5 10 10 -3 6 -8 10 -10 10 -2
0 -7 -4 -10 -10z"/>
<path d="M8803 5206 c0 -11 5 -13 19 -5 10 5 18 12 18 14 0 3 -8 5 -18 5 -10
0 -19 -7 -19 -14z"/>
<path d="M2996 3129 c-118 -19 -245 -117 -298 -227 -19 -40 -22 -64 -23 -163
0 -84 4 -121 14 -132 7 -9 11 -24 7 -32 -3 -9 -2 -13 4 -10 6 3 10 0 10 -8 0
-8 7 -20 15 -27 9 -7 14 -19 11 -26 -3 -7 0 -16 6 -20 7 -5 8 -2 3 6 -5 9 -4
11 4 6 6 -4 9 -15 7 -24 -7 -22 8 -47 23 -38 6 4 11 3 11 -3 0 -5 -4 -12 -8
-15 -15 -9 -1 -76 15 -76 13 0 13 -4 -2 -26 -9 -15 -12 -23 -6 -20 7 4 11 0
11 -12 0 -30 -11 -33 -44 -9 -44 30 -146 136 -146 150 0 8 -3 7 -9 -2 -6 -9
-5 -21 2 -32 16 -25 -8 -53 -24 -29 -8 11 -9 9 -3 -10 21 -80 164 -202 293
-251 208 -78 473 7 591 191 18 28 28 54 24 61 -4 7 -3 9 4 6 18 -12 44 84 49
187 4 74 3 97 -6 92 -8 -5 -10 1 -6 23 4 26 2 31 -14 31 -11 0 -22 -6 -25 -12
-3 -7 -3 4 0 24 20 125 -93 320 -223 386 -91 47 -166 58 -267 41z m170 -148
c214 -97 220 -376 9 -472 -75 -34 -189 -17 -263 39 -74 57 -114 179 -87 270
42 140 212 221 341 163z m348 -344 c4 -16 3 -26 -2 -23 -5 3 -9 -8 -9 -24 0
-16 4 -27 8 -25 4 3 2 -11 -4 -30 -17 -57 -23 -40 -15 43 3 42 7 81 7 86 1 15
8 3 15 -27z"/>
<path d="M2443 2625 c0 -22 2 -30 4 -17 2 12 2 30 0 40 -3 9 -5 -1 -4 -23z"/>
<path d="M2465 2467 c5 -25 4 -27 -13 -18 -23 12 -32 5 -32 -23 0 -15 3 -17
12 -8 16 16 25 15 32 -4 5 -14 4 -15 -9 -4 -12 10 -15 10 -16 -1 -4 -50 29
-133 84 -209 116 -161 304 -260 494 -260 38 0 55 4 59 15 4 8 16 15 28 16 19
1 19 2 -4 9 -21 7 -22 8 -5 10 11 1 15 4 7 7 -6 2 -10 8 -8 11 2 4 -19 8 -47
9 -211 9 -415 133 -515 312 -20 36 -39 67 -43 69 -5 2 -5 10 -2 19 5 12 3 14
-7 8 -10 -6 -12 -4 -7 8 3 9 2 27 -4 39 -8 21 -9 20 -4 -5z"/>
</g>
</svg>
